<svg class="icon" style="width: 1em;height: 1em;vertical-align: middle;fill: currentColor;overflow: hidden;" viewBox="0 0 1024 1024" version="1.1" xmlns="http://www.w3.org/2000/svg" p-id="77516"><path d="M511.931733 1023.351467a512.887467 512.887467 0 0 1-377.514666-166.126934l-20.241067-21.742933 20.241067-21.742933a513.7408 513.7408 0 0 1 377.514666-166.126934c143.121067 0 281.088 60.552533 377.514667 166.126934l20.241067 21.742933-20.206934 21.742933a512.887467 512.887467 0 0 1-377.514666 166.126934z m-308.565333-187.869867a448.853333 448.853333 0 0 0 308.565333 123.1872 448.853333 448.853333 0 0 0 308.565334-123.1872 448.853333 448.853333 0 0 0-308.565334-123.1872 448.853333 448.853333 0 0 0-308.565333 123.221333z m309.077333-234.461867c-90.2144 0-163.84-73.489067-163.84-163.5328 0-90.043733 73.6256-163.566933 163.84-163.566933 90.248533 0 163.874133 73.5232 163.874134 163.566933a163.7376 163.7376 0 0 1-163.84 163.5328z m0-262.382933a99.259733 99.259733 0 0 0-99.0208 98.850133 99.259733 99.259733 0 0 0 99.0208 98.850134 99.259733 99.259733 0 0 0 99.054934-98.850134 98.952533 98.952533 0 0 0-99.054934-98.850133zM116.770133 721.1008A442.88 442.88 0 0 1 64.9216 512c0-246.340267 200.704-446.122667 447.010133-446.122667 246.340267 0 447.010133 200.2944 447.010134 446.122667 0 72.977067-18.1248 144.930133-51.848534 208.5888 16.5888 15.530667 32.1536 32.085333 46.6944 49.698133A506.914133 506.914133 0 0 0 1023.761067 512c0-282.043733-229.717333-511.317333-512.341334-511.317333C229.307733 1.160533 0.1024 230.434133 0.1024 512c0 91.101867 24.3712 180.6336 70.519467 258.286933 13.994667-17.066667 29.559467-33.655467 46.148266-49.152z" p-id="77517"></path></svg>