<svg class="icon" style="width: 1em;height: 1em;vertical-align: middle;fill: currentColor;overflow: hidden;" viewBox="0 0 1024 1024" version="1.1" xmlns="http://www.w3.org/2000/svg" p-id="61038"><path d="M959.901158 643.014672a36.966795 36.966795 0 0 0-47.839382 21.399228c-62.8139 164.373745-223.283398 274.878764-399.271042 274.878764-235.63861 0-427.292664-191.654054-427.292665-427.243243 0-235.63861 191.654054-427.292664 427.292665-427.292664 221.257143 0 408.315058 172.528185 425.859459 392.796911l36.966795-2.965251-36.522007 9.241699 37.016216-2.32278 36.472587-9.834749C991.925869 213.152124 772.398456 10.625483 512.790734 10.625483 236.281081 10.625483 11.366795 235.539768 11.366795 512.049421c0 276.460232 224.914286 501.374517 501.423939 501.374517 206.579151 0 394.823166-129.630888 468.460231-322.520463a37.016216 37.016216 0 0 0-21.349807-47.888803z" fill="#438CFF" p-id="61039"></path><path d="M481.16139 271.765251L295.882625 456.994595c-0.296525 0.296525-0.395367 0.741313-0.642471 1.037837a36.571429 36.571429 0 0 0-7.116602 10.576062c-0.247104 0.642471-0.345946 1.383784-0.59305 2.026255-0.840154 2.32278-1.72973 4.64556-2.075676 7.166023l-35.879536 243.2a37.2139 37.2139 0 0 0 42.057142 42.106564l243.2-35.879537c2.32278-0.345946 4.447876-1.1861 6.622394-1.927413 0.840154-0.296525 1.630888-0.395367 2.471043-0.741313a37.26332 37.26332 0 0 0 10.724324-7.116602c0.296525-0.296525 0.691892-0.395367 1.037838-0.691892l185.278764-185.229343a136.203861 136.203861 0 0 0 0-192.247105l-67.558301-67.50888c-51.2-51.150579-141.047104-51.150579-192.247104 0z m-150.931274 410.687259l17.791506-120.883398 103.091892 103.091892-120.883398 17.791506z m358.301158-203.366796l-159.085714 159.036294-154.934363-154.934363 159.085714-159.036294c23.178378-23.178378 64.197683-23.178378 87.376062 0l67.558301 67.508881a62.023166 62.023166 0 0 1 0 87.425482z" fill="#438CFF" p-id="61040"></path></svg>