<svg class="icon" style="width: 1em;height: 1em;vertical-align: middle;fill: currentColor;overflow: hidden;" viewBox="0 0 1024 1024" version="1.1" xmlns="http://www.w3.org/2000/svg" p-id="4040"><path d="M512 64.050782c60.495816 0 119.153774 11.836583 174.345794 35.181267 53.335742 22.558785 101.245915 54.864562 142.401244 96.01989s73.461105 89.066525 96.01989 142.401244c23.344684 55.19202 35.181267 113.851001 35.181267 174.345794 0 60.494793-11.836583 119.153774-35.181267 174.345793-22.558785 53.334719-54.864562 101.245915-96.01989 142.401244s-89.066525 73.461105-142.401244 96.019891c-55.19202 23.344684-113.851001 35.181267-174.345794 35.181267s-119.153774-11.836583-174.345794-35.181267c-53.335742-22.558785-101.245915-54.864562-142.401244-96.019891S121.791857 739.679489 99.233072 686.34477c-23.344684-55.19202-35.181267-113.851001-35.181267-174.345793 0-60.495816 11.836583-119.153774 35.181267-174.345794 22.558785-53.335742 54.864562-101.245915 96.01989-142.401244s89.066525-73.461105 142.401244-96.01989c55.19202-23.344684 113.849978-35.181267 174.345794-35.181267m0-51.16531c-275.653107 0-499.114528 223.461421-499.114528 499.114528S236.346893 1011.114528 512 1011.114528s499.114528-223.461421 499.114528-499.114528S787.653107 12.885472 512 12.885472z" fill="" p-id="4041"></path><path d="M786.310529 540.674063c-9.080819 9.135054-23.858384 9.135054-32.992415 0L512.162706 298.765501 310.500776 501.072113h14.669095c25.791409 0 46.693462 21.063735 46.693462 46.963615v24.985044h0.054235l0.160659 141.318586c1.558495 15.368012 7.469112 19.452028 24.502044 20.633946 19.773346-1.774413 21.976524-8.705266 22.138206-34.819017l-0.054235-58.569953c0.215918-25.684986 21.010523-46.532803 46.641273-46.532803h23.320125v-0.591471l46.747697-0.107447v0.697895h23.320125c25.791409 0 46.74872 21.010523 46.74872 46.963614v24.985045h0.053212l0.053212 28.479634 0.053212-6.824429c0 36.539194 0 44.544519 22.997783 46.317909 23.481807-1.934049 23.696702-10.156314 23.696702-46.317909l-0.322341 46.641274h0.376576l-0.214894-188.336436c0-12.94994 10.477632-23.480784 23.373337-23.480784 12.896728 0 23.320125 10.530844 23.320125 23.480784l0.161682 163.350368h-0.161682v24.932856c0 25.953092-20.902052 47.015803-46.693462 47.015803h-46.694485c-25.52228 0-46.048779-20.578688-46.586015-46.103014l-0.054235-59.912532-0.160659-5.963828c0 0.591471 0.160659 1.020236 0.160659 1.664919l-0.053212-30.573319h-7.254218l6.5553 0.053212 0.591471 28.855188c-1.181919-22.998807-6.502088-27.942399-28.693506-28.855188l-37.238112 0.053212c-20.903076 0.966001-26.114774 5.748934-27.296693 26.006303l0.053212 42.826388h-0.160659v24.932856c0 25.953092-20.903076 47.015803-46.748721 47.015803h-46.694485c-25.469068 0-45.941332-20.525476-46.478567-46.048779l-0.215918-188.819436-12.08934 0.054235 11.44568 0.052188 0.160659 31.541367c-0.537236-25.738198-4.459568-30.68179-28.210505-31.594579l-40.622186 0.106424c-6.5553 0.485047-13.219069-1.503237-18.162662-6.555299-9.135054-9.134031-9.135054-24.019043 0-33.20731l256.093633-256.898974c0.591471-0.697895 0.859577-1.611707 1.505283-2.25639 9.134031-9.188266 23.910573-9.188266 33.045627 0l0.376577 0.375553 257.598916 258.405281c9.137101 9.18929 9.137101 24.073278 0.002046 33.261545z m-180.705641 194.783265l11.498892-0.053212-11.498892-0.053212v0.106424z m-140.190903-68.080561l0.537236-25.898857h-0.591471l0.054235 25.898857z m-93.334735 68.080561l11.498892-0.053212-11.498892-0.053212v0.106424z m-47.393403-156.417469c0.107447 4.78191 0.107447 10.209526 0.107447 16.549931l-0.107447-16.549931z" fill="" p-id="4042"></path></svg>