<svg class="icon" style="width: 1em;height: 1em;transform:scaleX(-1);vertical-align: middle;fill: currentColor;overflow: hidden;" viewBox="0 0 1024 1024" version="1.1" xmlns="http://www.w3.org/2000/svg"><path d="M143.438364 855.749418a26.776812 26.776812 0 0 1-20.799743-9.839879 510.393688 510.393688 0 0 1-42.502331-59.69069 27.02938 27.02938 0 1 1 46.159429-28.136795 449.52587 449.52587 0 0 0 38.045244 53.405054 27.176807 27.176807 0 0 1-3.542814 38.090957 28.079653 28.079653 0 0 1-17.359785 6.171353z m0 0M511.879522 1023.998766a507.662294 507.662294 0 0 1-294.762069-93.541701 27.01338 27.01338 0 0 1 31.142472-44.148025 454.405809 454.405809 0 0 0 263.676739 83.598966c252.259738 0 457.571484-205.50603 457.571485-458.017193S764.13926 53.87362 511.879522 53.87362 54.43375 259.505362 54.43375 512.005097a456.680067 456.680067 0 0 0 18.388344 128.77555 27.028237 27.028237 0 0 1-51.862216 15.211241 513.387937 513.387937 0 0 1-20.456889-143.998219c0-282.350794 229.414306-511.993669 511.490817-511.993669s511.490818 229.642875 511.490818 511.993669-229.517162 511.993669-511.605102 511.993668z m0 0M648.906399 239.859891H372.829813a61.279242 61.279242 0 0 0-61.187815 61.244957v421.811927a61.267814 61.267814 0 0 0 61.187815 61.244957h276.110871a61.279242 61.279242 0 0 0 61.187815-61.244957V301.104848a61.267814 61.267814 0 0 0-61.187815-61.244957z m-276.076586 40.822352h276.110871a20.399748 20.399748 0 0 1 20.411176 20.422605v326.281679H352.39578v-326.281679a20.399748 20.399748 0 0 1 20.434033-20.422605z m276.110871 462.657136h-276.110871a20.411176 20.411176 0 0 1-20.399748-20.422604V668.231737h316.88751v54.685038a20.422605 20.422605 0 0 1-20.411176 20.422604zM422.189203 348.098553h179.654921a20.434033 20.434033 0 0 0 0-40.856638h-179.654921a20.434033 20.434033 0 0 0 0 40.856638z m62.273515 357.93843a27.542517 27.542517 0 1 0 27.553945-27.553945 27.553945 27.553945 0 0 0-27.553945 27.553945z m0 0"></path></svg>