<svg id="menu_svg" class="icon" style="width: 1em;height: 1em;vertical-align: middle;fill: currentColor;overflow: hidden;" viewBox="0 0 1024 1024" version="1.1" xmlns="http://www.w3.org/2000/svg" p-id="1733"><path d="M170.666667 298.666667a42.666667 42.666667 0 0 1 42.666666-42.666667h597.333334a42.666667 42.666667 0 1 1 0 85.333333H213.333333a42.666667 42.666667 0 0 1-42.666666-42.666666z m0 213.333333a42.666667 42.666667 0 0 1 42.666666-42.666667h597.333334a42.666667 42.666667 0 1 1 0 85.333334H213.333333a42.666667 42.666667 0 0 1-42.666666-42.666667z m0 213.333333a42.666667 42.666667 0 0 1 42.666666-42.666666h597.333334a42.666667 42.666667 0 1 1 0 85.333333H213.333333a42.666667 42.666667 0 0 1-42.666666-42.666667z" fill="#0D0D0D" p-id="1734"></path></svg>