<svg class="icon" style="width: 1em;height: 1em;vertical-align: middle;fill: currentColor;overflow: hidden;" viewBox="0 0 1024 1024" version="1.1" xmlns="http://www.w3.org/2000/svg" p-id="70768"><path d="M512.1 982.8H404.4c-38.7 0-67.8-29.2-67.8-67.8v-77c-6-3.1-12-6.2-17.7-9.4L250.8 871c-32.5 16.2-69.5 6.1-90-24.7l-1.5-2.4L52.4 656.8c-11.7-18.3-14.7-39.4-8.2-58.2 5.8-16.8 18.5-30.2 35.5-37.5l63.5-39.7v-19.1l-63.5-39.7c-17-7.3-29.7-20.7-35.5-37.6-6.4-18.8-3.4-39.9 8.2-58.2l106.5-186.4c7.9-14.9 22-25.9 38.8-30.4 19.2-5.1 39.7-1.4 57.5 10.6l62.5 39.1c5.9-3.8 12.2-7.5 18.9-11v-80c0-38.7 29.2-67.8 67.8-67.8h214.9c38.7 0 67.8 29.2 67.8 67.8v76.9c6 3.1 11.9 6.2 17.7 9.4l68.1-42.4c32.5-16.2 69.5-6.1 90 24.7l1.5 2.4 106.9 187.1c11.7 18.3 14.7 39.4 8.2 58.2-5.8 16.8-18.5 30.2-35.5 37.5l-63.5 39.7v10c0 22.6-18.3 41-41 41s-41-18.3-41-41v-55.4l95.6-59.8-94.2-165-95.5 59.7-22-14.7c-14-9.3-34.7-19.7-54.7-29.7L605.3 236V122.7H418.5v125.4l-31 7.8c-11.4 2.9-26.7 13.3-39 21.7l-29.3 19.6-97.7-61.2-92 161 95.6 59.8v109.9l-95.6 59.8 94.2 165 95.5-59.7 22 14.7c14 9.3 34.7 19.7 54.7 29.7l22.6 11.3v113.4H512c22.6 0 41 18.3 41 41s-18.3 40.9-40.9 40.9zM511.9 429.9c45.2 0 81.9 36.7 81.9 81.9s-36.7 81.9-81.9 81.9S430 557 430 511.8s36.7-81.9 81.9-81.9m0-82c-90.5 0-163.8 73.4-163.8 163.8s73.4 163.8 163.8 163.8c90.5 0 163.8-73.4 163.8-163.8s-73.3-163.8-163.8-163.8zM696.4 901.3h245.8c22.5 0 41 18.4 41 41 0 22.5-18.4 41-41 41H696.4c-22.5 0-41-18.4-41-41 0-22.5 18.5-41 41-41zM696.4 758h245.8c22.5 0 41 18.4 41 41 0 22.5-18.4 41-41 41H696.4c-22.5 0-41-18.4-41-41s18.5-41 41-41zM696.4 614.6h245.8c22.5 0 41 18.4 41 41 0 22.5-18.4 41-41 41H696.4c-22.5 0-41-18.4-41-41 0-22.5 18.5-41 41-41z" p-id="70769"></path></svg>