<svg class="icon" style="width: 1em;height: 1em;vertical-align: middle;fill: currentColor;overflow: hidden;" viewBox="0 0 1024 1024" version="1.1" xmlns="http://www.w3.org/2000/svg" p-id="36072"><path d="M512 42.666667c259.2 0 469.333333 210.133333 469.333333 469.333333s-210.133333 469.333333-469.333333 469.333333S42.666667 771.2 42.666667 512 252.8 42.666667 512 42.666667z m0 85.333333C299.925333 128 128 299.925333 128 512s171.925333 384 384 384 384-171.925333 384-384S724.074667 128 512 128z m0 192a42.666667 42.666667 0 0 1 42.56 39.466667L554.666667 362.666667v106.666666h106.666666a42.666667 42.666667 0 0 1 3.2 85.226667L661.333333 554.666667h-106.666666v106.666666a42.666667 42.666667 0 0 1-85.226667 3.2L469.333333 661.333333v-106.666666h-106.666666a42.666667 42.666667 0 0 1-3.2-85.226667L362.666667 469.333333h106.666666v-106.666666a42.666667 42.666667 0 0 1 42.666667-42.666667z" fill="#000000" p-id="36073"></path></svg>